<?xml version="1.0" encoding="UTF-8" standalone="no"?>
<svg
   version="1.1"
   width="80"
   height="80"
   id="svg1"
   sodipodi:docname="favicon.svg"
   inkscape:version="1.4.2 (ebf0e940d0, 2025-05-08)"
   inkscape:export-filename="favicon-master.png"
   inkscape:export-xdpi="864"
   inkscape:export-ydpi="864"
   xmlns:inkscape="http://www.inkscape.org/namespaces/inkscape"
   xmlns:sodipodi="http://sodipodi.sourceforge.net/DTD/sodipodi-0.dtd"
   xmlns="http://www.w3.org/2000/svg"
   xmlns:svg="http://www.w3.org/2000/svg">
  <sodipodi:namedview
     id="namedview1"
     pagecolor="#ffffff"
     bordercolor="#666666"
     borderopacity="1.0"
     inkscape:showpageshadow="2"
     inkscape:pageopacity="0.0"
     inkscape:pagecheckerboard="0"
     inkscape:deskcolor="#d1d1d1"
     showgrid="false"
     inkscape:zoom="0.27604361"
     inkscape:cx="284.37535"
     inkscape:cy="170.26295"
     inkscape:window-width="3440"
     inkscape:window-height="1371"
     inkscape:window-x="0"
     inkscape:window-y="0"
     inkscape:window-maximized="1"
     inkscape:current-layer="g1" />
  <defs
     id="defs1" />
  <g
     id="g1">
    <rect
       style="fill:#0a36a6;fill-opacity:1;fill-rule:evenodd;stroke:none;stroke-width:5.9;stroke-dasharray:none;stroke-opacity:1"
       id="rect4"
       width="80"
       height="80"
       x="0"
       y="0"
       ry="15.517941"
       rx="15.517941" />
    <path
       id="path5"
       style="baseline-shift:baseline;display:inline;overflow:visible;vector-effect:none;fill:#ffffff;stroke-width:0.999998;stroke-linecap:round;stroke-miterlimit:10;paint-order:fill stroke markers;enable-background:accumulate;stop-color:#000000"
       d="m 31.618183,56.795196 c -0.5633,0.0188 -1.1295,0.14857 -1.6803,0.435539 l -0.1708,0.0996 -0.1668,0.103524 c -2.0743,1.29328 -3.1734,3.32434 -4.0517,4.51953 v 0.004 c -0.9468,1.279381 -1.6352,2.184971 -2.1966,2.482421 -0.013,-0.005 -0.042,-0.014 -0.088,-0.0352 -0.1362,-0.0618 -0.3283,-0.19225 -0.4947,-0.37109 -0.01,-0.008 -0.013,-0.0157 -0.02,-0.0234 l -0.01,-0.01 -0.012,-0.0137 c -0.8933,-0.917441 -1.7529,-2.461732 -2.9936,-4.025392 -0.537,-0.677489 -1.1514,-1.354829 -1.8845,-1.978519 -1.3167,-1.14392 -3.1939,-1.58934 -4.88,-0.62695 h -0.014 l -0.1668,0.103513 c -2.071,1.29127 -3.1650004,3.31619 -4.0419004,4.51172 l -0.01,0.006 v 0.008 c -0.066,0.0895 -0.1325,0.175631 -0.1963,0.261721 v 0.002 7.105467 c 1.8639004,-1.0236 2.9002004,-2.80093 3.6374004,-3.79688 l 0.037,-0.0527 c 1.0935,-1.49061 1.8811,-2.707456 2.656,-3.220695 v 0 c 0.01,-6.01e-4 0.041,-0.009 0.082,-0.002 0.09,0.0145 0.192,0.0695 0.1904,0.0664 l 0.01,0.0117 0.018,0.0117 c 1.0766,0.910515 2.0192,2.646565 3.4784,4.476555 v 0 0.002 c 0.3182,0.39622 0.6653,0.79469 1.0444,1.18751 0.5471,0.58916 1.2637,1.19062 2.1416,1.54688 0.871,0.35341 1.9205,0.4448 2.9818,0.004 l 0.035,-0.0137 0.035,-0.0137 c 2.1602,-0.9641 3.2971,-2.95025 4.0929,-4.02539 l 0.01,-0.0117 c 0,-0.007 0.01,-0.009 0.012,-0.0156 1.1118,-1.51297 1.9007,-2.734214 2.6834,-3.250004 0.012,-0.002 0.042,-0.008 0.077,-0.002 0.091,0.015 0.1935,0.0748 0.1884,0.0703 v 0.002 0.002 c 0.01,0.006 0.013,0.0102 0.02,0.0156 v 0.002 0.004 0.002 c 1.2706,1.077894 2.3444,3.320334 4.3383,5.476564 l 0.012,0.0137 0.012,0.0156 c 0.5152,0.57419 1.2092,1.20843 2.0807,1.61914 1.0683,0.50345 1.9728,0.50423 3.0427,0 0.8715,-0.41071 1.5656,-1.04495 2.0808,-1.61914 l 0.012,-0.0156 0.012,-0.0137 c 1.9938,-2.15619 3.0677,-4.39867 4.3382,-5.476564 v -0.002 -0.004 -0.002 c 0.01,-0.005 0.013,-0.0102 0.02,-0.0156 v -0.002 -0.002 c -0.01,0.005 0.097,-0.05529 0.1884,-0.0703 0.035,-0.006 0.065,1e-4 0.077,0.002 0.7827,0.51579 1.5716,1.737034 2.6834,3.250004 0,0.007 0.01,0.009 0.012,0.0156 l 0.01,0.0117 c 0.7958,1.07514 1.9327,3.06129 4.0928,4.02539 l 0.035,0.0137 0.035,0.0137 c 1.0614,0.44089 2.1109,0.3495 2.9818,-0.004 0.8779,-0.35626 1.5946,-0.95772 2.1417,-1.54688 0.3791,-0.39282 0.7262,-0.79129 1.0443,-1.18751 v -0.002 0 c 1.4594,-1.83016 2.4019,-3.56604 3.4785,-4.476555 l 0.018,-0.0117 0.01,-0.0117 c 0,0.003 0.1,-0.0519 0.1904,-0.0664 0.041,-0.007 0.074,10e-4 0.082,0.002 v 0 c 0.7748,0.513239 1.5624,1.730085 2.6559,3.220695 l 0.037,0.0527 c 0.7372,0.99595 1.7736,2.77328 3.6375,3.79688 v -7.105467 -0.002 c -0.064,-0.0861 -0.1301,-0.1722 -0.1963,-0.261721 v -0.008 l -0.01,-0.006 c -0.8769,-1.19553 -1.9708,-3.22045 -4.0418,-4.51172 l -0.1669,-0.103513 h -0.014 c -1.6861,-0.96239 -3.5634,-0.51697 -4.8801,0.62695 -0.7331,0.62369 -1.3475,1.30103 -1.8845,1.978519 -1.2406,1.56366 -2.1003,3.107951 -2.9936,4.025392 l -0.012,0.0137 -0.01,0.01 c -0.01,0.008 -0.013,0.0156 -0.02,0.0234 -0.1664,0.17884 -0.3585,0.3093 -0.4947,0.37109 -0.047,0.0212 -0.075,0.0302 -0.088,0.0352 -0.5614,-0.29745 -1.2498,-1.20304 -2.1966,-2.482421 v -0.004 c -0.8783,-1.19519 -1.9774,-3.22625 -4.0517,-4.51953 l -0.1668,-0.103524 -0.1708,-0.0996 c -0.5508,-0.286969 -1.117,-0.4167 -1.6803,-0.435539 -1.1252,-0.0376 -2.1875,0.42254 -3.0388,1.16015 v 0 0.002 c -2.3661,2.01076 -3.5285,4.55989 -4.7701,5.894534 l -0.025,0.0273 -0.014,0.0234 c -0.1661,0.18505 -0.3391,0.32666 -0.4789,0.41602 -0.1399,-0.0894 -0.3128,-0.23097 -0.479,-0.41602 l -0.014,-0.0234 -0.026,-0.0273 c -1.2418,-1.334693 -2.4041,-3.883823 -4.7703,-5.894574 v -0.002 0 c -0.8513,-0.73761 -1.9135,-1.19779 -3.0387,-1.160161 z m -16.6698,5.43945 c -0.031,0.0192 -0.051,0.0342 -0.063,0.041 0.014,-0.009 0.025,-0.0187 0.039,-0.0273 z m 49.9979,0 0.024,0.0137 c 0.014,0.009 0.025,0.0183 0.039,0.0273 -0.012,-0.007 -0.032,-0.0217 -0.063,-0.041 z"
       sodipodi:nodetypes="sccccccscccccccccccccccccccscccccccccccccccsccccccccccssccccccccccscccccccccccccccscccccccccccccccccccsccccccscccccccccccccscccccccc" />
    <path
       style="font-weight:bold;font-size:41.398px;line-height:1.25;font-family:'Fira Sans Toaq';-inkscape-font-specification:'Fira Sans Toaq, Normal';letter-spacing:0px;fill:#ffffff"
       d="M 19.520741,17.55251 V 12.625 H 8.6449961 V 52.1286 H 19.520741 V 47.242849 H 14.801078 V 17.55251 Z M 71.354846,52.1286 V 12.625 H 60.479101 v 4.92751 h 4.719663 v 29.64858 h -4.719663 v 4.92751 z"
       id="text3"
       aria-label="[    ]" />
    <circle
       style="fill:none;fill-opacity:1;fill-rule:evenodd;stroke:#ffffff;stroke-width:5.9;stroke-dasharray:none;stroke-opacity:1"
       id="path4"
       cx="40"
       cy="32.376808"
       r="14.05" />
  </g>
</svg>
