<?xml version="1.0" encoding="UTF-8" standalone="no"?>
<svg
   version="1.1"
   width="80"
   height="80"
   id="svg1"
   sodipodi:docname="favicon.svg"
   inkscape:version="1.4.2 (ebf0e940d0, 2025-05-08)"
   inkscape:export-filename="favicon-master.png"
   inkscape:export-xdpi="864"
   inkscape:export-ydpi="864"
   xmlns:inkscape="http://www.inkscape.org/namespaces/inkscape"
   xmlns:sodipodi="http://sodipodi.sourceforge.net/DTD/sodipodi-0.dtd"
   xmlns="http://www.w3.org/2000/svg"
   xmlns:svg="http://www.w3.org/2000/svg">
  <sodipodi:namedview
     id="namedview1"
     pagecolor="#ffffff"
     bordercolor="#666666"
     borderopacity="1.0"
     inkscape:showpageshadow="2"
     inkscape:pageopacity="0.0"
     inkscape:pagecheckerboard="0"
     inkscape:deskcolor="#d1d1d1"
     showgrid="false"
     inkscape:zoom="2.2083489"
     inkscape:cx="39.848776"
     inkscape:cy="79.697551"
     inkscape:window-width="1920"
     inkscape:window-height="1011"
     inkscape:window-x="0"
     inkscape:window-y="0"
     inkscape:window-maximized="1"
     inkscape:current-layer="g1" />
  <defs
     id="defs1" />
  <g
     id="g1">
    <rect
       style="fill:#0a36a6;fill-opacity:1;fill-rule:evenodd;stroke:none;stroke-width:5.9;stroke-dasharray:none;stroke-opacity:1"
       id="rect4"
       width="80"
       height="80"
       x="0"
       y="0"
       ry="15.517941" />
    <path
       id="path3"
       style="baseline-shift:baseline;display:inline;overflow:visible;opacity:1;fill:#ffffff;fill-opacity:1;stroke:#ffffff;stroke-width:1.4;stroke-linejoin:miter;stroke-miterlimit:10;stroke-dasharray:none;stroke-opacity:1;paint-order:fill stroke markers;enable-background:accumulate;stop-color:#000000;stop-opacity:1"
       d="m 47.003906,57.800952 c -0.918141,-0.02896 -1.810283,0.327493 -2.541015,0.926188 -2.194078,1.757399 -3.283547,4.05037 -4.650391,5.435922 a 1.5561623,1.8220858 0 0 0 -0.02344,0.02973 c -0.515183,0.545221 -1.084441,0.801483 -1.386718,0.70436 C 37.603906,64.5945 36.932695,63.709824 36.01367,62.548523 l -0.0059,-0.0069 C 35.074767,61.34777 34.046391,59.55969 32.203083,58.406928 h -0.0059 c -1.445202,-0.923397 -3.068554,-0.652874 -4.291016,0.347605 -2.277304,1.813914 -3.377707,4.200934 -4.808594,5.586857 a 1.5561623,1.8220858 0 0 0 -0.0293,0.02973 c -0.456338,0.465174 -1.015172,0.680528 -1.283203,0.576294 -0.854026,-0.364778 -1.550165,-1.340591 -2.509765,-2.563596 l -0.0059,-0.0069 c -0.919427,-1.180409 -1.937092,-2.939379 -3.798702,-4.033964 h -0.0078 c -1.449442,-0.868015 -3.024189,-0.530278 -4.19336,0.427647 -0.682694,0.546819 -1.257222,1.142233 -1.7675779,1.749466 v 5.509101 c 1.3904849,-1.644503 2.3032119,-3.28331 3.5312379,-4.26275 a 1.5561623,1.8220858 0 0 0 0.01758,-0.01601 c 0.274699,-0.225717 0.800409,-0.286918 0.996094,-0.169229 a 1.5561623,1.8220858 0 0 0 0.01953,0.01372 c 1.019735,0.596334 1.803027,1.825573 2.910156,3.245086 a 1.5561623,1.8220858 0 0 0 0,0.0069 c 0.832645,1.060822 1.87632,2.74098 3.769532,3.537808 a 1.5561623,1.8220858 0 0 0 0.01758,0.0069 c 1.78144,0.716954 3.365224,-0.274478 4.345703,-1.273793 2.01149,-1.961089 3.046919,-4.163853 4.552734,-5.358168 a 1.5561623,1.8220858 0 0 0 0.02539,-0.02287 c 0.26258,-0.216188 0.81205,-0.268025 1.019531,-0.134927 a 1.5561623,1.8220858 0 0 0 0.01953,0.01372 c 1.034808,0.641755 1.85719,1.948153 2.990235,3.39602 a 1.5561623,1.8220858 0 0 0 0.0059,0.0069 c 0.809488,1.02263 1.862525,2.67216 3.75586,3.373152 a 1.5561623,1.8220858 0 0 0 0.02539,0.0069 c 1.855983,0.647171 3.40817,-0.494323 4.345703,-1.479613 l 0.0059,-0.0069 c 1.897635,-1.926584 2.91841,-4.025644 4.376953,-5.188937 a 1.5561623,1.8220858 0 0 0 0.0175,-0.01387 c 0.274726,-0.225726 0.794564,-0.289195 0.990234,-0.171516 a 1.5561623,1.8220858 0 0 0 0.01953,0.01372 c 1.019742,0.596335 1.803029,1.825576 2.910156,3.245088 a 1.5561623,1.8220858 0 0 0 0.0059,0.0091 c 0.832645,1.060813 1.870457,2.738696 3.763672,3.535521 a 1.5561623,1.8220858 0 0 0 0.02344,0.0069 c 1.779116,0.715959 3.359071,-0.275794 4.339843,-1.273794 0.357836,-0.349333 0.685685,-0.708018 0.990235,-1.065687 1.39051,-1.644505 2.305172,-3.283312 3.533203,-4.262751 a 1.5561623,1.8220858 0 0 0 0.01758,-0.01601 c 0.274791,-0.225712 0.800411,-0.286917 0.996094,-0.169229 a 1.5561623,1.8220858 0 0 0 0.01953,0.01372 c 1.019745,0.596335 1.804978,1.825573 2.912109,3.245087 a 1.5561623,1.8220858 0 0 0 0,0.0069 c 0.83265,1.060822 1.874384,2.740982 3.767578,3.537809 a 1.5561623,1.8220858 0 0 0 0.01953,0.0069 c 0.27072,0.108951 0.5367,0.17896 0.796875,0.214968 v -3.768784 c -0.756844,-0.427972 -1.413756,-1.338323 -2.289103,-2.45396 l -0.0059,-0.0069 c -0.919521,-1.180439 -1.937221,-2.939395 -3.798828,-4.03398 h -0.0059 c -1.44811,-0.868043 -3.024176,-0.532565 -4.193359,0.42536 -0.682682,0.54682 -1.259161,1.144521 -1.769531,1.751753 -1.177206,1.399152 -2.009494,2.839541 -3.001953,3.8008 a 1.5561623,1.8220858 0 0 0 -0.02539,0.02745 c -0.456182,0.465164 -1.019072,0.680546 -1.287109,0.576295 -0.855213,-0.365292 -1.550042,-1.342742 -2.511719,-2.56817 -0.920046,-1.180521 -1.941767,-2.940999 -3.804688,-4.036349 h -0.0059 C 48.112993,57.97389 47.55479,57.818333 47.003906,57.800956 Z" />
    <text
       xml:space="preserve"
       style="font-size:41.0406px;line-height:1.25;font-family:'Fira Sans Toaq';-inkscape-font-specification:'Fira Sans Toaq, Normal';letter-spacing:0px;fill:#ffffff;fill-opacity:1;stroke-width:1"
       x="7.2496257"
       y="46.880413"
       id="text3"><tspan
         sodipodi:role="line"
         id="tspan3"
         x="7.2496257"
         y="46.880413"
         style="font-weight:bold;fill:#ffffff;fill-opacity:1;stroke-width:1">[    ]</tspan></text>
    <circle
       style="fill:none;fill-opacity:1;fill-rule:evenodd;stroke:#ffffff;stroke-width:5.9;stroke-dasharray:none;stroke-opacity:1"
       id="path4"
       cx="40"
       cy="32.517941"
       r="14.05" />
  </g>
</svg>
