<?xml version="1.0" encoding="UTF-8" standalone="no"?>
<svg
   version="1.1"
   width="170.3484"
   height="101.21321"
   id="svg1"
   sodipodi:docname="logo-round.svg"
   inkscape:version="1.4.2 (ebf0e940d0, 2025-05-08)"
   inkscape:export-filename="favicon-master.png"
   inkscape:export-xdpi="864"
   inkscape:export-ydpi="864"
   xmlns:inkscape="http://www.inkscape.org/namespaces/inkscape"
   xmlns:sodipodi="http://sodipodi.sourceforge.net/DTD/sodipodi-0.dtd"
   xmlns="http://www.w3.org/2000/svg"
   xmlns:svg="http://www.w3.org/2000/svg">
  <sodipodi:namedview
     id="namedview1"
     pagecolor="#ffffff"
     bordercolor="#666666"
     borderopacity="1.0"
     inkscape:showpageshadow="2"
     inkscape:pageopacity="0.0"
     inkscape:pagecheckerboard="0"
     inkscape:deskcolor="#d1d1d1"
     showgrid="false"
     inkscape:zoom="2.8284271"
     inkscape:cx="140.00714"
     inkscape:cy="67.882251"
     inkscape:window-width="1920"
     inkscape:window-height="1011"
     inkscape:window-x="0"
     inkscape:window-y="0"
     inkscape:window-maximized="1"
     inkscape:current-layer="g1" />
  <defs
     id="defs1" />
  <g
     id="g1"
     transform="translate(0,-13.989595)">
    <path
       style="font-weight:bold;font-size:41.0406px;line-height:1.25;font-family:'Fira Sans Toaq';-inkscape-font-specification:'Fira Sans Toaq, Normal';letter-spacing:0px;fill:#ffffff"
       d="M 18.612749,41.94679 V 37.104 H 7.7369896 V 83.92841 H 18.612749 V 79.12666 H 13.89308 V 41.94679 Z"
       id="text3"
       aria-label="["
       sodipodi:nodetypes="ccccccccc" />
    <ellipse
       style="fill:none;fill-opacity:1;fill-rule:evenodd;stroke:#ffffff;stroke-width:5.9;stroke-dasharray:none;stroke-opacity:1"
       id="path4"
       cx="131.65154"
       cy="60.832237"
       rx="11.742959"
       ry="11.533987" />
    <ellipse
       style="fill:none;fill-opacity:1;fill-rule:evenodd;stroke:#ffffff;stroke-width:5.9;stroke-dasharray:none;stroke-opacity:1"
       id="circle18"
       cx="97.562782"
       cy="60.832237"
       rx="11.742959"
       ry="11.533987" />
    <path
       id="rect18"
       style="fill:#ffffff;fill-rule:evenodd;stroke-width:1.5"
       d="m 110.11898,40.2604 6.10579,3.105941 -7.39028,8.933934 -3.95721,-3.012982 z"
       sodipodi:nodetypes="ccccc" />
    <path
       id="circle19"
       style="fill:none;fill-opacity:1;fill-rule:evenodd;stroke:#ffffff;stroke-width:5.9;stroke-dasharray:none;stroke-opacity:1"
       d="m 63.474535,72.36682 c 6.485323,-5.4e-4 11.742332,-5.16472 11.741973,-11.53463 3.59e-4,-6.36991 -5.25665,-11.53409 -11.741973,-11.53463 -3.122741,1.3e-4 -8.207588,2.17465 -9.936793,7.41061"
       sodipodi:nodetypes="cccc" />
    <path
       id="path19"
       style="fill:none;fill-opacity:1;fill-rule:evenodd;stroke:#ffffff;stroke-width:5.9;stroke-dasharray:none;stroke-opacity:1"
       d="m 39.14596,49.29756 c -6.485326,5.4e-4 -11.742335,5.16472 -11.741976,11.53463 -3.59e-4,6.36991 5.25665,11.53409 11.741976,11.53463 3.372736,-1.4e-4 6.582584,-1.42465 8.811791,-3.91062"
       sodipodi:nodetypes="cccc" />
    <circle
       style="fill:#ffffff;fill-opacity:1;fill-rule:evenodd;stroke:none;stroke-width:1.5"
       id="path20"
       cx="38.069824"
       cy="82.60289"
       r="4.3018565" />
    <path
       style="font-weight:bold;font-size:41.0406px;line-height:1.25;font-family:'Fira Sans Toaq';-inkscape-font-specification:'Fira Sans Toaq, Normal';letter-spacing:0px;fill:#ffffff"
       d="M 151.73699,41.94679 V 37.104 h 10.87575 v 46.82441 h -10.87575 v -4.80175 h 4.71966 V 41.94679 Z"
       id="path22"
       aria-label="["
       sodipodi:nodetypes="ccccccccc" />
    <path
       id="path24"
       style="baseline-shift:baseline;display:inline;overflow:visible;opacity:1;fill:#ffffff;fill-opacity:1;stroke:#ffffff;stroke-width:1;stroke-linejoin:miter;stroke-miterlimit:10;stroke-dasharray:none;stroke-opacity:1;paint-order:fill stroke markers;enable-background:accumulate;stop-color:#000000;stop-opacity:1"
       d="m 162.61346,91.720064 c -0.82186,0.04102 -1.61276,0.382171 -2.27148,0.921875 -2.19408,1.7574 -3.28355,4.050001 -4.65039,5.435551 a 1.5561623,1.8220858 0 0 0 -0.0234,0.0312 c -0.51519,0.54522 -1.08445,0.80024 -1.38672,0.70312 -0.79844,-0.30265 -1.46965,-1.18636 -2.38867,-2.34766 l -0.008,-0.008 c -0.93279,-1.193896 -1.96138,-2.982002 -3.80469,-4.134762 h -0.006 c -1.13743,-0.726753 -2.38509,-0.71368 -3.46094,-0.1875 v -0.0039 c -0.29367,0.14291 -0.57543,0.324273 -0.83789,0.539062 -0.0901,0.07179 -0.16156,0.151217 -0.24804,0.22461 -0.22895,0.194508 -0.45203,0.391788 -0.65821,0.595703 -0.15456,0.152621 -0.30003,0.306931 -0.44336,0.462891 -0.0916,0.0998 -0.17807,0.198109 -0.26562,0.298828 -0.33921,0.389641 -0.63146,0.765247 -0.92383,1.154297 -0.23985,0.318885 -0.46963,0.615271 -0.69141,0.919921 -0.0906,0.12433 -0.19798,0.26214 -0.2871,0.38281 -0.10652,0.14412 -0.21473,0.29053 -0.32032,0.42774 -0.0833,0.10844 -0.16846,0.20918 -0.25195,0.3125 -0.2109,0.26066 -0.42286,0.50647 -0.64258,0.72656 -0.0258,0.0259 -0.0502,0.0568 -0.0762,0.082 a 1.5561623,1.8220858 0 0 0 -0.0293,0.0293 c -0.39634,0.40401 -0.87076,0.62018 -1.16406,0.60156 -0.001,-1e-4 -0.003,1.2e-4 -0.004,0 -0.013,-9.1e-4 -0.0249,-0.004 -0.0371,-0.006 -0.001,-2.1e-4 -0.003,2.3e-4 -0.004,0 -0.0115,-0.002 -0.0224,-0.005 -0.0332,-0.008 -0.0119,-0.003 -0.0223,-0.008 -0.0332,-0.0117 -0.85403,-0.36477 -1.55016,-1.3395 -2.50976,-2.5625 l -0.006,-0.008 c -0.11212,-0.14396 -0.26055,-0.341102 -0.37696,-0.499998 -0.21067,-0.287483 -0.41318,-0.563461 -0.65039,-0.878906 -0.10184,-0.135259 -0.2155,-0.272789 -0.32422,-0.410156 -0.10173,-0.128399 -0.18795,-0.239094 -0.29687,-0.367188 -0.1821,-0.213778 -0.37241,-0.426113 -0.57813,-0.632812 -0.045,-0.04516 -0.0984,-0.08615 -0.14453,-0.13086 -0.1668,-0.160756 -0.33453,-0.318087 -0.51953,-0.46875 -0.0236,-0.01929 -0.0425,-0.04148 -0.0664,-0.06055 h -0.002 c -0.008,-0.0066 -0.019,-0.01101 -0.0273,-0.01758 -0.25415,-0.200363 -0.51944,-0.39409 -0.8125,-0.566406 h -0.008 -0.002 c -0.0454,-0.02718 -0.091,-0.04744 -0.13671,-0.07227 -0.0643,-0.03511 -0.12871,-0.06906 -0.19336,-0.09961 -0.0527,-0.02475 -0.10534,-0.04854 -0.15821,-0.07031 -0.0182,-0.0075 -0.0365,-0.01625 -0.0547,-0.02344 -0.0654,-0.02586 -0.13138,-0.04705 -0.19726,-0.06836 -0.0652,-0.02111 -0.13001,-0.0398 -0.19531,-0.05664 -0.0768,-0.02002 -0.15371,-0.0365 -0.23047,-0.05078 -0.0451,-0.0082 -0.0897,-0.01713 -0.13477,-0.02344 -0.0241,-0.0034 -0.0482,-0.0088 -0.0723,-0.01172 -0.0956,-0.01141 -0.18989,-0.01848 -0.28516,-0.02148 v -0.002 c -0.11477,-0.0036 -0.23006,-3.05e-4 -0.34375,0.0078 -0.0289,0.0021 -0.0571,0.0089 -0.0859,0.01172 -0.1115,0.01109 -0.22226,0.02701 -0.33203,0.04883 -0.0604,0.01188 -0.1199,0.02602 -0.17969,0.04102 -0.0925,0.02341 -0.18466,0.05142 -0.27539,0.08203 -0.0412,0.01381 -0.0842,0.02189 -0.125,0.03711 -0.10671,0.0399 -0.21285,0.08544 -0.3164,0.134765 -0.10405,0.0496 -0.20628,0.10348 -0.30664,0.16211 -0.20075,0.11712 -0.3935,0.250711 -0.57617,0.40039 -0.239,0.19141 -0.46514,0.389547 -0.67969,0.591797 -0.0588,0.05532 -0.10302,0.115925 -0.16016,0.171875 -0.23114,0.22624 -0.4434,0.457492 -0.65039,0.691407 -0.0882,0.0997 -0.19284,0.194378 -0.27734,0.294921 v 0.002 c -1.1306,1.34422 -1.94097,2.728861 -2.88282,3.683591 a 1.5561623,1.8220858 0 0 0 -0.0234,0.0312 c -0.51518,0.54522 -1.08444,0.80025 -1.38672,0.70313 -0.79843,-0.30265 -1.46964,-1.18636 -2.38867,-2.34766 l -0.006,-0.008 c -0.93278,-1.193899 -1.96138,-2.982005 -3.80469,-4.134765 h -0.006 c -1.4452,-0.923396 -3.06856,-0.652824 -4.29102,0.347656 -0.46281,0.36864 -0.86784,0.763176 -1.24609,1.166016 v -0.0098 c -0.0284,0.0302 -0.0502,0.0615 -0.0781,0.0918 -0.19415,0.21014 -0.36212,0.421306 -0.53907,0.634766 -0.25549,0.30799 -0.50376,0.608582 -0.73242,0.914062 -0.27575,0.36833 -0.5352,0.713675 -0.78906,1.060545 -0.15651,0.2139 -0.31291,0.4252 -0.4668,0.625 -0.0747,0.097 -0.14977,0.18836 -0.22461,0.28125 -0.22697,0.28175 -0.45574,0.54903 -0.69336,0.78321 -0.0131,0.0129 -0.0259,0.0283 -0.0391,0.041 v 0.002 a 1.5561623,1.8220858 0 0 0 -0.0293,0.0273 c -0.45633,0.46517 -1.01517,0.6804 -1.2832,0.57617 -0.027,-0.0115 -0.0534,-0.0263 -0.0801,-0.0391 -0.0527,-0.0251 -0.10461,-0.0524 -0.15625,-0.082 -0.0431,-0.0248 -0.0864,-0.0503 -0.1289,-0.0781 -0.029,-0.019 -0.0572,-0.0422 -0.0859,-0.0625 -0.25812,-0.18283 -0.50847,-0.41572 -0.76367,-0.69727 v -0.002 c -0.40056,-0.44204 -0.81537,-0.99035 -1.29492,-1.60156 l -0.006,-0.006 v -0.002 c -0.91935,-1.180431 -1.93722,-2.938614 -3.798828,-4.033204 h -0.0078 c -0.14192,-0.085 -0.285728,-0.15673 -0.429687,-0.21875 -0.046,-0.02 -0.0925,-0.03503 -0.138672,-0.05273 -0.0464,-0.0178 -0.09219,-0.03909 -0.138672,-0.05469 h -0.002 c -0.0365,-0.0122 -0.07291,-0.02035 -0.109375,-0.03125 -0.058,-0.0173 -0.115789,-0.03493 -0.173828,-0.04883 -0.0931,-0.0226 -0.186267,-0.03853 -0.279297,-0.05273 -0.0443,-0.007 -0.0886,-0.01668 -0.132813,-0.02148 -0.005,-5.7e-4 -0.01053,-9.06e-4 -0.01563,-0.002 -0.12534,-0.0133 -0.25061,-0.01858 -0.375,-0.01758 -0.11634,9.4e-4 -0.234689,0.009 -0.349609,0.02148 -0.1057,0.0119 -0.212336,0.02928 -0.316406,0.05078 -0.628151,0.13017 -1.222342,0.430805 -1.738282,0.853515 -0.68268,0.54682 -1.259131,1.144713 -1.769531,1.751953 -1.17717,1.39915 -2.009493,2.839526 -3.001953,3.800786 a 1.5561623,1.8220858 0 0 0 -0.02539,0.0273 c -0.45618,0.46516 -1.019069,0.68043 -1.287109,0.57617 -0.85521,-0.36529 -1.550039,-1.34293 -2.511719,-2.56836 -0.92005,-1.180521 -1.941783,-2.939807 -3.804687,-4.035157 h -0.0059 c -0.54314,-0.32555 -1.101457,-0.480677 -1.652344,-0.498047 v -0.002 c -0.918141,-0.029 -1.810283,0.327091 -2.541015,0.925781 -2.194078,1.7574 -3.283547,4.049993 -4.650391,5.435543 a 1.5561623,1.8220858 0 0 0 -0.02344,0.0293 c -0.515183,0.54522 -1.084442,0.8022 -1.386719,0.70508 -0.798436,-0.30266 -1.469647,-1.18831 -2.388672,-2.34961 l -0.0059,-0.006 c -0.933003,-1.193858 -1.96138,-2.982004 -3.804688,-4.134764 h -0.0059 c -1.445202,-0.923392 -3.068554,-0.652818 -4.291016,0.347657 -2.277304,1.81389 -3.377704,4.200007 -4.808594,5.585937 a 1.5561623,1.8220858 0 0 0 -0.0293,0.0293 c -0.456338,0.46517 -1.01517,0.68236 -1.283204,0.57813 -0.0726,-0.031 -0.144266,-0.0678 -0.214843,-0.10743 v -0.006 C 53.689182,98.38416 53.03231,97.47465 52.156963,96.35901 l -0.0059,-0.008 c -0.919391,-1.180422 -1.937221,-2.938615 -3.798828,-4.033205 h -0.0059 c -0.27745,-0.16631 -0.560667,-0.287095 -0.84375,-0.369141 -0.09239,-0.0269 -0.18489,-0.04976 -0.277343,-0.06836 -0.18804,-0.0373 -0.375822,-0.0581 -0.5625,-0.0625 h -0.002 c -0.186016,-0.004 -0.370257,0.007 -0.552734,0.0332 -0.176944,0.025 -0.353774,0.06391 -0.52539,0.115235 -0.105768,0.0317 -0.20741,0.0781 -0.310547,0.11914 -0.06347,0.0254 -0.131038,0.04552 -0.19336,0.07422 h -0.002 c -0.16282,0.0754 -0.322906,0.162746 -0.476562,0.259766 -0.157343,0.099 -0.309319,0.206741 -0.455078,0.326171 -0.682694,0.54682 -1.257223,1.142761 -1.767579,1.75 v 0.0059 c -1.174116,1.39697 -2.005279,2.835254 -2.996093,3.794924 a 1.5561623,1.8220858 0 0 0 -0.02539,0.0273 c -0.456182,0.46516 -1.019072,0.68042 -1.287109,0.57617 -0.855213,-0.36529 -1.550042,-1.34293 -2.511719,-2.56836 -0.920046,-1.180519 -1.941767,-2.941758 -3.804688,-4.037108 h -0.0059 c -0.54314,-0.325562 -1.10146,-0.480677 -1.652344,-0.498047 -0.918141,-0.029 -1.810283,0.327081 -2.541015,0.925781 -2.194078,1.7574 -3.283547,4.049994 -4.650391,5.435544 a 1.5561623,1.8220858 0 0 0 -0.02344,0.0312 c -0.515183,0.54522 -1.084441,0.80025 -1.386718,0.70313 -0.798436,-0.30265 -1.469647,-1.18636 -2.388672,-2.34766 l -0.0078,-0.008 c -0.932786,-1.193898 -1.961379,-2.982004 -3.804687,-4.134764 h -0.0078 c -1.445202,-0.9234 -3.068553,-0.652827 -4.291015,0.347657 -1.4230605,1.13349 -2.3860617,2.492199 -3.2578133,3.689457 v 5.10156 c 0.1655741,-0.13888 0.3193152,-0.28339 0.4609376,-0.42774 2.0114907,-1.96109 3.0469197,-4.16309 4.5527347,-5.357418 a 1.5561623,1.8220858 0 0 0 0.02539,-0.02344 c 0.26258,-0.21618 0.81205,-0.267866 1.019531,-0.134766 a 1.5561623,1.8220858 0 0 0 0.01953,0.01367 c 1.034808,0.641754 1.85719,1.948624 2.990235,3.396484 a 1.5561623,1.8220858 0 0 0 0.0078,0.008 c 0.809488,1.02263 1.862524,2.67401 3.755859,3.375 a 1.5561623,1.8220858 0 0 0 0.02539,0.006 c 1.855983,0.64717 3.40817,-0.49518 4.345703,-1.48047 l 0.0059,-0.006 c 1.897635,-1.92658 2.91841,-4.02616 4.376953,-5.189452 a 1.5561623,1.8220858 0 0 0 0.01758,-0.01563 c 0.274726,-0.22573 0.794564,-0.289555 0.990234,-0.171875 a 1.5561623,1.8220858 0 0 0 0.01953,0.01563 c 1.019743,0.596327 1.80303,1.826587 2.910157,3.246097 a 1.5561623,1.8220858 0 0 0 0.0078,0.008 c 0.832645,1.06081 1.870457,2.74028 3.763672,3.53711 a 1.5561623,1.8220858 0 0 0 0.02344,0.006 c 1.779116,0.71596 3.359071,-0.27544 4.339843,-1.27344 0.357836,-0.34933 0.685685,-0.70874 0.990235,-1.06641 1.39051,-1.6445 2.305172,-3.28228 3.533203,-4.261717 a 1.5561623,1.8220858 0 0 0 0.01758,-0.01563 c 0.18271,-0.15008 0.477161,-0.228125 0.710938,-0.228515 0.02862,1.7e-4 0.0556,6.36e-4 0.08203,0.0039 h 0.002 c 0.07841,0.008 0.145701,0.02599 0.193359,0.05469 a 1.5561623,1.8220858 0 0 0 0.01953,0.01367 c 1.019735,0.596332 1.803028,1.826582 2.910157,3.246092 a 1.5561623,1.8220858 0 0 0 0,0.006 c 0.832645,1.06083 1.876319,2.74028 3.769531,3.53711 a 1.5561623,1.8220858 0 0 0 0.01758,0.008 c 0.136061,0.0548 0.270723,0.0972 0.404297,0.13282 0.01175,0.003 0.02343,0.005 0.03516,0.008 0.106446,0.0271 0.211771,0.0489 0.316407,0.0645 0.01676,0.003 0.03407,0.01 0.05078,0.0117 v -0.006 c 1.447556,0.19564 2.709532,-0.63891 3.539062,-1.48438 2.01149,-1.96109 3.04692,-4.16505 4.552735,-5.359375 a 1.5561623,1.8220858 0 0 0 0.02539,-0.02148 c 0.26258,-0.21618 0.81205,-0.267865 1.019532,-0.134765 a 1.5561623,1.8220858 0 0 0 0.01953,0.01367 c 1.034808,0.64175 1.857189,1.94666 2.990234,3.39453 a 1.5561623,1.8220858 0 0 0 0.0059,0.0117 c 0.809489,1.02263 1.862525,2.67205 3.75586,3.37305 a 1.5561623,1.8220858 0 0 0 0.02539,0.008 c 1.855983,0.64717 3.408171,-0.49323 4.345704,-1.47852 l 0.0059,-0.01 c 1.897635,-1.92658 2.91841,-4.02421 4.376953,-5.187498 a 1.5561623,1.8220858 0 0 0 0.01758,-0.01563 c 0.274726,-0.22572 0.794565,-0.289555 0.990235,-0.171875 a 1.5561623,1.8220858 0 0 0 0.01953,0.01563 c 1.019742,0.596333 1.803029,1.824633 2.910156,3.244143 a 1.5561623,1.8220858 0 0 0 0.0059,0.0117 c 0.832639,1.06082 1.870451,2.73833 3.763671,3.53515 a 1.5561623,1.8220858 0 0 0 0.02344,0.008 c 1.77911,0.71596 3.359074,-0.27739 4.339844,-1.27539 0.35783,-0.34933 0.685724,-0.70678 0.990234,-1.06445 v -0.002 l 0.002,-0.002 v -0.002 h 0.002 l 0.002,-0.002 0.002,-0.002 v 0.006 0.004 c 1.390489,-1.6445 2.303229,-3.28423 3.53125,-4.263673 a 1.5561623,1.8220858 0 0 0 0.01758,-0.01563 c 0.0908,-0.0746 0.209344,-0.131782 0.333984,-0.169922 0.15616,-0.0469 0.322921,-0.06669 0.457031,-0.05469 h 0.002 c 0.0263,0.002 0.05072,0.007 0.07422,0.01172 h 0.002 0.002 c 0.0227,0.005 0.04495,0.01058 0.06445,0.01758 0.0206,0.007 0.03839,0.01559 0.05469,0.02539 a 1.5561623,1.8220858 0 0 0 0.01953,0.01367 c 1.01975,0.596335 1.80498,1.826585 2.912105,3.246095 a 1.5561623,1.8220858 0 0 0 0,0.006 c 0.832646,1.06082 1.874376,2.74223 3.767576,3.53906 a 1.5561623,1.8220858 0 0 0 0.0195,0.006 c 0.13536,0.0545 0.26949,0.0991 0.40234,0.13477 0.13284,0.0356 0.26451,0.0619 0.39453,0.0801 0.38367,0.0536 0.75237,0.0301 1.10547,-0.043 0.11981,-0.0247 0.23793,-0.0575 0.35352,-0.0937 0.0585,-0.0185 0.11644,-0.0374 0.17383,-0.0586 0.0364,-0.0134 0.0715,-0.0286 0.10742,-0.043 0.15078,-0.0606 0.29765,-0.12883 0.43945,-0.20508 0.0271,-0.0145 0.0533,-0.0299 0.0801,-0.0449 0.15637,-0.088 0.30736,-0.1813 0.45117,-0.2832 0.004,-0.003 0.008,-0.007 0.0117,-0.01 0.0883,-0.0629 0.16684,-0.12875 0.25,-0.19531 0.1832,-0.14631 0.35561,-0.29636 0.51172,-0.45118 0.0208,-0.0207 0.0481,-0.0399 0.0684,-0.0606 0.58853,-0.57378 1.09322,-1.16799 1.55078,-1.75195 v -0.004 c 1.1065,-1.41142 1.93672,-2.76059 3.00195,-3.605468 a 1.5561623,1.8220858 0 0 0 0.0254,-0.02344 c 0.26258,-0.21617 0.81206,-0.267865 1.01954,-0.134765 a 1.5561623,1.8220858 0 0 0 0.0195,0.01367 c 1.03481,0.641753 1.85718,1.948623 2.99023,3.396483 a 1.5561623,1.8220858 0 0 0 0.006,0.006 c 0.80948,1.02264 1.86252,2.67401 3.75586,3.375 a 1.5561623,1.8220858 0 0 0 0.0254,0.006 c 1.85598,0.64718 3.40817,-0.49518 4.3457,-1.48047 l 0.006,-0.006 c 0.31143,-0.31618 0.56984,-0.63839 0.83985,-0.95898 v 0.0312 c 0.003,-0.003 0.005,-0.007 0.008,-0.01 v 0.01 c 1.02457,-1.21177 1.7902,-2.41506 2.61328,-3.35938 0.0947,-0.10846 0.19042,-0.21321 0.28711,-0.31445 0.0472,-0.0494 0.0947,-0.10093 0.14258,-0.14844 0.15834,-0.157283 0.31861,-0.305687 0.48633,-0.43945 a 1.5561623,1.8220858 0 0 0 0.002,-0.002 1.5561623,1.8220858 0 0 0 0.0156,-0.01172 c 0.0389,-0.03195 0.0838,-0.06242 0.13086,-0.08789 0.14089,-0.07571 0.31252,-0.121298 0.46875,-0.136719 0.0578,-0.0055 0.11399,-0.0067 0.16602,-0.0039 0.0232,0.0015 0.0448,0.003 0.0664,0.0059 h 0.002 c 0.0309,0.0049 0.06,0.01141 0.0859,0.01953 0.0265,0.008 0.0501,0.01915 0.0703,0.03125 a 1.5561623,1.8220858 0 0 0 0.0195,0.01367 c 0.14727,0.0861 0.28864,0.185715 0.42773,0.296875 0.13465,0.107671 0.26634,0.228864 0.39649,0.357424 0.13425,0.13228 0.26773,0.28347 0.40039,0.43555 0.1731,0.19871 0.34641,0.41133 0.52344,0.63867 0.15507,0.19835 0.32893,0.42048 0.49218,0.63672 0.21817,0.28882 0.4266,0.56692 0.66993,0.8789 a 1.5561623,1.8220858 0 0 0 0,0.002 1.5561623,1.8220858 0 0 0 0,0.006 c 0.0483,0.0616 0.12197,0.15134 0.17187,0.2168 0.31009,0.40733 0.66158,0.86783 1.06641,1.3418 0.0821,0.0963 0.1294,0.17779 0.21679,0.27343 0.60647,0.66562 1.34993,1.30109 2.31446,1.70704 a 1.5561623,1.8220858 0 0 0 0.0234,0.006 c 0.0616,0.0247 0.12222,0.0396 0.18359,0.0606 0.0626,0.0213 0.12542,0.0452 0.1875,0.0625 0.02,0.005 0.0407,0.0144 0.0606,0.0195 0.17486,0.045 0.3458,0.0727 0.51562,0.0879 h 0.002 c 0.01,8.7e-4 0.0194,-7.9e-4 0.0293,0 0.12395,0.01 0.24829,0.016 0.36914,0.0117 0.14253,-0.005 0.28217,-0.022 0.41992,-0.0449 0.0418,-0.007 0.0818,-0.0189 0.12305,-0.0273 0.0945,-0.0194 0.18738,-0.0397 0.2793,-0.0664 0.0521,-0.0151 0.10304,-0.0316 0.15429,-0.0488 0.0731,-0.0247 0.14556,-0.0513 0.2168,-0.0801 0.0668,-0.0269 0.13222,-0.0558 0.19727,-0.0859 0.027,-0.0126 0.0534,-0.026 0.0801,-0.0391 0.39086,-0.19107 0.74224,-0.43574 1.0586,-0.70118 0.0312,-0.0262 0.0673,-0.0496 0.0976,-0.0762 v -0.002 c 0.0761,-0.0665 0.14404,-0.13504 0.21485,-0.20312 0.0503,-0.0482 0.11065,-0.0941 0.1582,-0.14258 0.12469,-0.12156 0.21646,-0.24798 0.33399,-0.37109 0.30222,-0.31657 0.59435,-0.63337 0.85742,-0.95313 0.24422,-0.2969 0.46928,-0.57977 0.68945,-0.87109 0.59098,-0.7811 1.11688,-1.51765 1.6582,-2.15235 0.3242,-0.38098 0.65575,-0.725873 1.01368,-1.009762 a 1.5561623,1.8220858 0 0 0 0.0254,-0.02344 c 0.26258,-0.21618 0.81204,-0.267865 1.01953,-0.134765 a 1.5561623,1.8220858 0 0 0 0.0195,0.01367 c 1.0348,0.641747 1.85719,1.948627 2.99023,3.396487 a 1.5561623,1.8220858 0 0 0 0.006,0.006 c 0.80949,1.02263 1.86252,2.67401 3.75586,3.375 a 1.5561623,1.8220858 0 0 0 0.0254,0.008 c 1.85598,0.64717 3.40818,-0.49518 4.34571,-1.48047 l 0.006,-0.008 c 1.89764,-1.92658 2.91841,-4.02617 4.37696,-5.189456 a 1.5561623,1.8220858 0 0 0 0.0176,-0.01367 c 0.12789,-0.105091 0.30961,-0.174104 0.48632,-0.207032 z" />
  </g>
</svg>
