<?xml version="1.0" encoding="UTF-8" standalone="no"?>
<svg
   version="1.1"
   width="170.3484"
   height="101.21321"
   id="svg1"
   xmlns="http://www.w3.org/2000/svg"
   xmlns:svg="http://www.w3.org/2000/svg">
  <defs
     id="defs1" />
  <path
     style="font-weight:bold;font-size:41.0406px;line-height:1.25;font-family:'Fira Sans Toaq';-inkscape-font-specification:'Fira Sans Toaq, Normal';letter-spacing:0px;fill:#ffffff"
     d="m 18.612749,24.956737 v -4.84279 H 7.7369896 v 46.82441 H 18.612749 v -4.80175 H 13.89308 v -37.17987 z"
     id="text3"
     aria-label="[" />
  <ellipse
     style="fill:none;fill-opacity:1;fill-rule:evenodd;stroke:#ffffff;stroke-width:5.9;stroke-dasharray:none;stroke-opacity:1"
     id="path4"
     cx="131.4767"
     cy="42.607384"
     rx="11.742959"
     ry="12.682675" />
  <ellipse
     style="fill:none;fill-opacity:1;fill-rule:evenodd;stroke:#ffffff;stroke-width:5.9;stroke-dasharray:none;stroke-opacity:1"
     id="circle18"
     cx="98.387703"
     cy="42.607384"
     rx="11.742959"
     ry="12.682675" />
  <path
     id="rect18"
     style="fill:#ffffff;fill-rule:evenodd;stroke-width:1.5"
     d="m 108.64581,19.598 6.10579,3.415267 -7.39028,9.823678 -3.95721,-3.313049 z" />
  <path
     id="path19"
     style="fill:none;fill-opacity:1;fill-rule:evenodd;stroke:#ffffff;stroke-width:5.9;stroke-dasharray:none;stroke-opacity:1"
     d="m 39.358006,29.923949 c -6.754464,5.94e-4 -12.229636,5.679083 -12.229262,12.683382 -3.74e-4,7.0043 5.474798,12.682789 12.229262,12.683383 3.512703,-1.54e-4 7.026201,-0.74423 9.177476,-4.300085 2.151276,-3.555855 3.93891,-7.876704 5.811558,-12.918035 1.872648,-5.041332 7.096832,-8.148502 10.349165,-8.148645 6.754461,5.94e-4 12.229633,5.679083 12.229259,12.683382 3.74e-4,7.0043 -5.474798,12.682789 -12.229259,12.683383" />
  <circle
     style="fill:#ffffff;fill-opacity:1;fill-rule:evenodd;stroke:none;stroke-width:1.5"
     id="path20"
     cx="38.794582"
     cy="65.612839"
     r="4.3018565" />
  <path
     style="font-weight:bold;font-size:41.0406px;line-height:1.25;font-family:'Fira Sans Toaq';-inkscape-font-specification:'Fira Sans Toaq, Normal';letter-spacing:0px;fill:#ffffff"
     d="m 151.73699,24.956737 v -4.84279 h 10.87575 v 46.82441 h -10.87575 v -4.80175 h 4.71966 v -37.17987 z"
     id="path22"
     aria-label="[" />
  <path
     id="path24"
     style="baseline-shift:baseline;display:inline;overflow:visible;fill:#ffffff;fill-opacity:1;stroke:#ffffff;stroke-width:0.999997;stroke-linejoin:miter;stroke-miterlimit:10;stroke-dasharray:none;stroke-opacity:1;paint-order:fill stroke markers;enable-background:accumulate;stop-color:#000000"
     d="m 162.10796,76.727028 c -0.81917,0.04011 -1.60747,0.373699 -2.26404,0.901439 -2.18689,1.718444 -3.27279,3.960224 -4.63515,5.31506 a 1.5510629,1.781695 0 0 0 -0.0233,0.03051 c -0.5135,0.533139 -1.0809,0.782501 -1.38218,0.687535 -0.79582,-0.295938 -1.46483,-1.160063 -2.38084,-2.29562 l -0.008,-0.0078 c -0.92973,-1.16743 -1.95496,-2.915899 -3.79222,-4.043105 h -0.006 c -1.13371,-0.710643 -2.37728,-0.69786 -3.4496,-0.183343 v -0.0038 c -0.29271,0.139742 -0.57355,0.317085 -0.83515,0.527113 -0.0898,0.07019 -0.16103,0.147865 -0.24723,0.219631 -0.2282,0.190197 -0.45055,0.383103 -0.65605,0.582498 -0.15405,0.149238 -0.29904,0.300127 -0.4419,0.45263 -0.0913,0.09759 -0.17749,0.193717 -0.26476,0.292204 -0.33809,0.381003 -0.62939,0.748283 -0.9208,1.128709 -0.23906,0.311816 -0.46809,0.601632 -0.68914,0.899529 -0.0903,0.121574 -0.19734,0.256329 -0.28616,0.374324 -0.10617,0.140925 -0.21403,0.28409 -0.31928,0.418258 -0.083,0.106037 -0.1679,0.204543 -0.25112,0.305573 -0.2102,0.254881 -0.42147,0.495243 -0.64048,0.710454 -0.0257,0.02532 -0.05,0.05555 -0.0759,0.08018 a 1.5510629,1.781695 0 0 0 -0.0292,0.02864 c -0.39504,0.395058 -0.86791,0.606435 -1.16024,0.58823 -7.8e-4,-1e-4 -0.003,1.15e-4 -0.004,0 -0.0129,-7.68e-4 -0.0248,-0.0038 -0.0369,-0.0061 -7.9e-4,-1.99e-4 -0.003,2.31e-4 -0.004,0 -0.0114,-0.0023 -0.0223,-0.0046 -0.0331,-0.0078 -0.0119,-0.0031 -0.0222,-0.0078 -0.0331,-0.01144 -0.85123,-0.35669 -1.54508,-1.309808 -2.50154,-2.505697 l -0.006,-0.0078 c -0.11175,-0.14077 -0.2597,-0.333541 -0.37572,-0.488915 -0.20998,-0.281111 -0.41183,-0.55097 -0.64826,-0.859423 -0.1015,-0.132261 -0.2148,-0.266742 -0.32316,-0.401064 -0.1014,-0.125553 -0.18734,-0.233794 -0.2959,-0.359049 -0.1815,-0.209039 -0.37119,-0.416667 -0.57623,-0.618784 -0.0448,-0.04416 -0.0981,-0.08424 -0.14406,-0.127959 -0.16625,-0.157192 -0.33343,-0.311035 -0.51783,-0.458359 -0.0235,-0.01887 -0.0423,-0.04056 -0.0662,-0.05921 h -0.002 c -0.008,-0.0064 -0.0189,-0.01077 -0.0272,-0.01719 -0.25332,-0.195922 -0.51775,-0.385355 -0.80985,-0.553851 h -0.008 -0.002 c -0.0452,-0.02657 -0.0907,-0.04639 -0.13626,-0.07067 -0.0641,-0.03433 -0.12829,-0.06753 -0.19273,-0.0974 -0.0525,-0.0242 -0.105,-0.04746 -0.15769,-0.06875 -0.0182,-0.0074 -0.0364,-0.01589 -0.0546,-0.02292 -0.0652,-0.02529 -0.13094,-0.04601 -0.19661,-0.06685 -0.065,-0.02064 -0.12958,-0.03892 -0.19466,-0.05538 -0.0765,-0.01958 -0.15321,-0.03569 -0.22972,-0.04966 -0.0449,-0.008 -0.0894,-0.01675 -0.13433,-0.02292 -0.024,-0.0033 -0.0481,-0.0086 -0.0721,-0.01146 -0.0953,-0.01116 -0.18926,-0.01807 -0.28423,-0.02101 v -0.0019 c -0.11439,-0.0035 -0.2293,-2.98e-4 -0.34262,0.0076 -0.0288,0.0021 -0.0569,0.0087 -0.0856,0.01146 -0.11114,0.01084 -0.22154,0.02641 -0.33095,0.04774 -0.0602,0.01162 -0.1195,0.02545 -0.1791,0.04011 -0.0922,0.02289 -0.18405,0.05028 -0.27448,0.08021 -0.0411,0.01351 -0.0839,0.02141 -0.1246,0.03629 -0.10636,0.03901 -0.21214,0.08355 -0.31536,0.131777 -0.10371,0.04851 -0.2056,0.101186 -0.30563,0.158517 -0.20009,0.114524 -0.39221,0.245154 -0.57429,0.391514 -0.23821,0.187168 -0.46361,0.380912 -0.67746,0.578679 -0.0586,0.05409 -0.10268,0.113355 -0.15963,0.168065 -0.23039,0.221225 -0.44195,0.447351 -0.64826,0.67608 -0.0879,0.09749 -0.19221,0.19007 -0.27643,0.288384 v 0.0019 c -1.1269,1.314421 -1.93461,2.668369 -2.87338,3.601935 a 1.5510629,1.781695 0 0 0 -0.0233,0.03051 c -0.51349,0.533127 -1.08089,0.782504 -1.38217,0.687539 -0.79582,-0.295939 -1.46483,-1.160057 -2.38085,-2.295614 l -0.006,-0.0078 c -0.92972,-1.167434 -1.95495,-2.915902 -3.79223,-4.043109 h -0.006 c -1.44046,-0.902926 -3.0585,-0.638352 -4.27695,0.33995 -0.4613,0.360468 -0.865,0.746258 -1.24201,1.140168 v -0.0096 c -0.0283,0.02953 -0.05,0.06014 -0.0779,0.08976 -0.19351,0.205483 -0.36093,0.411968 -0.5373,0.620696 -0.25465,0.301163 -0.50211,0.595091 -0.73002,0.893799 -0.27484,0.360166 -0.53344,0.697855 -0.78647,1.037036 -0.156,0.209158 -0.31189,0.415774 -0.46528,0.611146 -0.0744,0.09485 -0.14927,0.184184 -0.22387,0.275015 -0.22622,0.275504 -0.45424,0.536859 -0.69109,0.765846 -0.0131,0.01259 -0.0258,0.02764 -0.039,0.04008 v 0.0023 a 1.5510629,1.781695 0 0 0 -0.0292,0.02672 c -0.45484,0.454857 -1.01185,0.665312 -1.27899,0.563398 -0.0269,-0.01129 -0.0532,-0.02572 -0.0798,-0.03824 -0.0525,-0.02457 -0.10427,-0.05121 -0.15574,-0.08018 -0.043,-0.02426 -0.0861,-0.04922 -0.12848,-0.0764 -0.0289,-0.01858 -0.057,-0.04123 -0.0856,-0.06112 -0.25728,-0.178774 -0.50681,-0.406499 -0.76116,-0.681809 v -0.0019 c -0.39925,-0.432241 -0.8127,-0.968397 -1.29069,-1.566058 l -0.006,-0.0058 v -0.0019 c -0.91633,-1.154264 -1.930869,-2.873473 -3.786378,-3.943798 h -0.0078 c -0.141452,-0.08312 -0.284789,-0.153256 -0.428276,-0.213901 -0.04586,-0.01956 -0.0922,-0.03425 -0.138219,-0.05156 -0.04626,-0.01741 -0.09189,-0.03822 -0.138219,-0.05348 h -0.0023 c -0.03639,-0.01193 -0.07263,-0.0199 -0.10901,-0.03056 -0.05784,-0.01691 -0.115412,-0.03415 -0.173259,-0.04774 -0.0928,-0.0221 -0.185656,-0.03768 -0.278387,-0.05156 -0.04414,-0.0068 -0.08831,-0.01631 -0.132372,-0.02101 -0.0047,-5.57e-4 -0.01049,-9.21e-4 -0.01558,-0.0019 -0.124929,-0.01301 -0.249788,-0.01817 -0.37377,-0.01719 -0.11596,9.21e-4 -0.233916,0.0088 -0.348459,0.02101 -0.105355,0.01163 -0.211641,0.02863 -0.315376,0.04966 -0.626087,0.127284 -1.218331,0.421255 -1.732583,0.834594 -0.680443,0.534699 -1.255007,1.119338 -1.763733,1.713118 -1.173312,1.368134 -2.002909,2.776581 -2.992114,3.716534 a 1.5510629,1.781695 0 0 0 -0.02528,0.02672 c -0.454691,0.45485 -1.01573,0.665344 -1.282894,0.563399 -0.852411,-0.357197 -1.544962,-1.313166 -2.503487,-2.511432 -0.917035,-1.154352 -1.935419,-2.874639 -3.792219,-3.945707 h -0.0063 C 80.74998,76.955873 80.193488,76.804185 79.644407,76.787199 v -0.0019 c -0.915132,-0.02836 -1.80435,0.31984 -2.532688,0.905259 -2.186888,1.718443 -3.272787,3.960216 -4.635152,5.315052 a 1.5510629,1.781695 0 0 0 -0.02336,0.02865 c -0.513495,0.533137 -1.080888,0.784418 -1.382175,0.689452 -0.79582,-0.295954 -1.464831,-1.16197 -2.380845,-2.297526 l -0.0059,-0.0058 c -0.929945,-1.167394 -1.954952,-2.915901 -3.79222,-4.043107 h -0.0059 c -1.440467,-0.902923 -3.058499,-0.638347 -4.276955,0.33995 -2.269842,1.773681 -3.366636,4.106904 -4.792837,5.46211 a 1.5510629,1.781695 0 0 0 -0.0292,0.02864 c -0.454842,0.454857 -1.011843,0.667232 -1.278999,0.56531 -0.07236,-0.03033 -0.143793,-0.06626 -0.214139,-0.105047 v -0.0061 C 53.53781,83.243306 52.88309,82.353959 52.010611,81.263049 l -0.0059,-0.0078 c -0.916378,-1.154255 -1.930873,-2.873474 -3.786379,-3.9438 h -0.0059 c -0.276541,-0.162623 -0.55883,-0.280731 -0.840985,-0.360958 -0.09209,-0.02631 -0.184285,-0.04866 -0.276434,-0.06685 -0.187424,-0.03647 -0.374591,-0.05681 -0.560657,-0.06111 h -0.002 c -0.185407,-0.0039 -0.369044,0.0068 -0.550922,0.03246 -0.176364,0.02445 -0.352616,0.06249 -0.523669,0.11268 -0.105421,0.031 -0.20673,0.07637 -0.309529,0.116499 -0.06326,0.02484 -0.130609,0.04451 -0.192727,0.07258 h -0.002 c -0.162286,0.07373 -0.321848,0.159138 -0.475,0.254007 -0.156828,0.09681 -0.308306,0.202158 -0.453587,0.318941 -0.680457,0.534698 -1.253103,1.117429 -1.761787,1.711207 v 0.0058 c -1.170269,1.366002 -1.998708,2.772404 -2.986275,3.710806 a 1.5510629,1.781695 0 0 0 -0.0253,0.02672 c -0.454687,0.45485 -1.015732,0.665344 -1.282891,0.563399 -0.85241,-0.357189 -1.544963,-1.313162 -2.503488,-2.511428 -0.917031,-1.15435 -1.935404,-2.876547 -3.79222,-3.947616 h -0.0059 c -0.54136,-0.318345 -1.097851,-0.470021 -1.64693,-0.487007 -0.915132,-0.02836 -1.80435,0.319831 -2.532688,0.90526 -2.186888,1.718442 -3.272787,3.960216 -4.635152,5.315052 a 1.5510629,1.781695 0 0 0 -0.02336,0.03051 c -0.513495,0.533135 -1.080887,0.782512 -1.382174,0.687539 -0.79582,-0.295939 -1.464831,-1.160057 -2.380844,-2.295614 l -0.0077,-0.0078 c -0.929729,-1.167432 -1.954952,-2.915901 -3.79222,-4.043108 h -0.0077 c -1.440466,-0.90293 -3.058497,-0.638355 -4.276954,0.339951 -1.4183966,1.108364 -2.3782425,2.436954 -3.2471374,3.607671 v 4.988474 c 0.1650315,-0.135806 0.3182689,-0.277111 0.4594272,-0.418262 2.0048992,-1.917619 3.0369352,-4.070803 4.5378152,-5.238656 a 1.5510629,1.781695 0 0 0 0.0253,-0.02292 c 0.261719,-0.211389 0.809389,-0.261929 1.01619,-0.131779 a 1.5510629,1.781695 0 0 0 0.01946,0.01337 c 1.031417,0.627529 1.851105,1.905428 2.980437,3.321194 a 1.5510629,1.781695 0 0 0 0.0077,0.0078 c 0.806835,0.999958 1.856421,2.614728 3.743551,3.300181 a 1.5510629,1.781695 0 0 0 0.0253,0.0061 c 1.849901,0.632825 3.397002,-0.484204 4.331463,-1.447651 l 0.0059,-0.0061 c 1.891416,-1.883873 2.908847,-3.936909 4.36261,-5.074415 a 1.5510629,1.781695 0 0 0 0.01752,-0.01528 c 0.273826,-0.220727 0.79196,-0.283137 0.986989,-0.168066 a 1.5510629,1.781695 0 0 0 0.01947,0.01528 c 1.016402,0.583109 1.797122,1.786097 2.900621,3.174135 a 1.5510629,1.781695 0 0 0 0.0077,0.0078 c 0.829916,1.037298 1.864327,2.679541 3.751338,3.4587 a 1.5510629,1.781695 0 0 0 0.02336,0.0061 c 1.773286,0.700088 3.348064,-0.269341 4.325622,-1.245212 0.356664,-0.341586 0.683438,-0.693031 0.98699,-1.042772 1.385953,-1.608044 2.297618,-3.20952 3.521625,-4.167246 a 1.5510629,1.781695 0 0 0 0.01752,-0.01528 c 0.182112,-0.146753 0.475598,-0.223068 0.70861,-0.223449 0.02853,1.66e-4 0.05542,6.22e-4 0.08176,0.0038 h 0.002 c 0.07815,0.0078 0.145224,0.02541 0.192725,0.05348 a 1.5510629,1.781695 0 0 0 0.01946,0.01337 c 1.016394,0.583113 1.79712,1.786091 2.900621,3.174131 a 1.5510629,1.781695 0 0 0 0,0.0061 c 0.829916,1.037313 1.87017,2.679533 3.757178,3.4587 a 1.5510629,1.781695 0 0 0 0.01752,0.0078 c 0.135615,0.0536 0.269837,0.09505 0.402973,0.129879 0.01171,0.0031 0.02335,0.0046 0.03505,0.0078 0.106097,0.02649 0.211077,0.04784 0.315369,0.06304 0.0167,0.0031 0.03396,0.0098 0.05062,0.01144 v -0.0061 c 1.442812,0.191306 2.700652,-0.62474 3.527464,-1.451475 2.004898,-1.917611 3.036935,-4.072716 4.537816,-5.240566 a 1.5510629,1.781695 0 0 0 0.0253,-0.02101 c 0.26172,-0.211388 0.809389,-0.261927 1.016191,-0.131777 a 1.5510629,1.781695 0 0 0 0.01946,0.01337 c 1.031417,0.627525 1.851103,1.903508 2.980435,3.319278 a 1.5510629,1.781695 0 0 0 0.0059,0.01144 c 0.806836,0.999966 1.856421,2.612824 3.743552,3.298284 a 1.5510629,1.781695 0 0 0 0.0253,0.0078 c 1.849901,0.632818 3.397002,-0.482299 4.331463,-1.445747 l 0.0059,-0.0098 c 1.891417,-1.883873 2.908847,-3.935002 4.362611,-5.072503 a 1.5510629,1.781695 0 0 0 0.01752,-0.01528 c 0.273825,-0.220716 0.791961,-0.283136 0.98699,-0.168065 a 1.5510629,1.781695 0 0 0 0.01947,0.01529 c 1.016404,0.583114 1.797123,1.784186 2.900621,3.17223 a 1.5510629,1.781695 0 0 0 0.0063,0.01144 c 0.829909,1.037305 1.864321,2.677629 3.751332,3.456781 a 1.5510629,1.781695 0 0 0 0.02332,0.0078 c 1.773281,0.700087 3.348071,-0.271238 4.325622,-1.247116 0.356662,-0.341586 0.68348,-0.691112 0.986991,-1.040853 v -0.0023 l 0.0023,-0.0023 v -0.0023 h 0.0023 l 0.0023,-0.0023 0.0023,-0.0023 v 0.0061 0.0038 c 1.385931,-1.608052 2.29568,-3.21143 3.519678,-4.169161 a 1.5510629,1.781695 0 0 0 0.01753,-0.01528 c 0.0905,-0.07294 0.208659,-0.128861 0.332884,-0.166155 0.155649,-0.04586 0.321864,-0.06521 0.455536,-0.05348 h 0.0023 c 0.02622,0.0019 0.05056,0.0068 0.07396,0.01146 h 0.0023 0.0023 c 0.02262,0.0049 0.04477,0.01034 0.06426,0.01719 0.02051,0.0068 0.03827,0.01524 0.05447,0.02482 a 1.5510629,1.781695 0 0 0 0.01949,0.01337 c 1.016403,0.583116 1.799063,1.786094 2.902561,3.174136 a 1.5510629,1.781695 0 0 0 0,0.0061 c 0.829917,1.037298 1.868227,2.681438 3.755227,3.460605 a 1.5510629,1.781695 0 0 0 0.0194,0.0061 c 0.13492,0.05329 0.2686,0.09691 0.40102,0.131784 0.13241,0.03478 0.26364,0.06051 0.39324,0.07833 0.38241,0.05244 0.7499,0.02941 1.10185,-0.04208 0.11941,-0.02419 0.23714,-0.05621 0.35236,-0.09163 0.0583,-0.01812 0.11605,-0.03655 0.17326,-0.05728 0.0362,-0.01313 0.0712,-0.02795 0.10707,-0.04208 0.15028,-0.05928 0.29667,-0.125971 0.438,-0.200528 0.027,-0.01421 0.0532,-0.02925 0.0798,-0.04392 0.15586,-0.08605 0.30635,-0.177285 0.44969,-0.276927 0.004,-0.0031 0.008,-0.0069 0.0117,-0.0098 0.088,-0.0615 0.1663,-0.125902 0.24919,-0.190983 0.18259,-0.143063 0.35445,-0.289789 0.51004,-0.441175 0.0207,-0.02027 0.048,-0.03901 0.0682,-0.05928 0.5866,-0.561056 1.08964,-1.142099 1.5457,-1.713114 v -0.0038 c 1.10287,-1.380136 1.93037,-2.699399 2.99211,-3.525548 a 1.5510629,1.781695 0 0 0 0.0253,-0.02292 c 0.26173,-0.211378 0.8094,-0.261927 1.0162,-0.131777 a 1.5510629,1.781695 0 0 0 0.0194,0.01337 c 1.03142,0.627526 1.8511,1.905426 2.98043,3.321191 a 1.5510629,1.781695 0 0 0 0.006,0.0061 c 0.80683,0.999973 1.85642,2.614736 3.74355,3.300189 a 1.5510629,1.781695 0 0 0 0.0254,0.0061 c 1.8499,0.632834 3.397,-0.484203 4.33146,-1.447651 l 0.006,-0.0061 c 0.3104,-0.309176 0.56796,-0.624242 0.83709,-0.937725 v 0.03048 c 0.003,-0.0031 0.005,-0.0069 0.008,-0.0098 v 0.0098 c 1.02121,-1.184906 1.78434,-2.361522 2.60472,-3.284909 0.0944,-0.106056 0.1898,-0.208483 0.28617,-0.30748 0.047,-0.0483 0.0944,-0.09869 0.14211,-0.145149 0.15782,-0.153797 0.31756,-0.298911 0.48473,-0.429709 a 1.5510629,1.781695 0 0 0 0.002,-0.0019 1.5510629,1.781695 0 0 0 0.0156,-0.01146 c 0.0387,-0.03124 0.0835,-0.06104 0.13043,-0.08594 0.14043,-0.07403 0.31149,-0.118609 0.46721,-0.133688 0.0576,-0.0054 0.11361,-0.0065 0.16547,-0.0038 0.0232,0.0015 0.0447,0.0029 0.0662,0.0058 h 0.002 c 0.0308,0.0048 0.0598,0.01116 0.0856,0.0191 0.0264,0.0078 0.0499,0.01873 0.0701,0.03056 a 1.5510629,1.781695 0 0 0 0.0194,0.01337 c 0.14679,0.08419 0.2877,0.181598 0.42633,0.290294 0.13421,0.105284 0.26547,0.223791 0.39519,0.349501 0.13381,0.129347 0.26686,0.277186 0.39908,0.425895 0.17253,0.194305 0.34528,0.402212 0.52173,0.624512 0.15456,0.193953 0.32785,0.41116 0.49057,0.622606 0.21744,0.282418 0.4252,0.554357 0.66773,0.859417 a 1.5510629,1.781695 0 0 0 0,0.0023 1.5510629,1.781695 0 0 0 0,0.0061 c 0.0481,0.06028 0.12157,0.147985 0.1713,0.211992 0.30908,0.398306 0.65941,0.848594 1.06292,1.312059 0.0818,0.09417 0.12897,0.173853 0.21608,0.267367 0.60448,0.65087 1.3455,1.272247 2.30688,1.669202 a 1.5510629,1.781695 0 0 0 0.0233,0.0061 c 0.0614,0.02419 0.12182,0.0387 0.18299,0.05928 0.0624,0.02081 0.12501,0.04423 0.18688,0.06112 0.02,0.0046 0.0405,0.01405 0.0604,0.01904 0.17428,0.044 0.34467,0.0711 0.51393,0.08595 h 0.002 c 0.01,7.67e-4 0.0193,-7.68e-4 0.0292,0 0.12354,0.0098 0.24748,0.01566 0.36793,0.01144 0.14206,-0.0046 0.28124,-0.0215 0.41855,-0.04392 0.0416,-0.0069 0.0815,-0.0185 0.12264,-0.02672 0.0942,-0.01897 0.18677,-0.03885 0.27839,-0.06496 0.0519,-0.01474 0.1027,-0.03087 0.15378,-0.04768 0.0729,-0.02419 0.14508,-0.05014 0.21609,-0.07833 0.0666,-0.02634 0.13179,-0.05459 0.19662,-0.08399 0.0269,-0.01228 0.0532,-0.02541 0.0798,-0.03824 0.38958,-0.186829 0.73981,-0.426079 1.05513,-0.685637 0.0311,-0.02565 0.0671,-0.04853 0.0973,-0.07448 v -0.0023 c 0.0758,-0.06504 0.14357,-0.132053 0.21415,-0.198624 0.0502,-0.04715 0.11028,-0.09201 0.15768,-0.139415 0.12428,-0.118869 0.21575,-0.242482 0.33289,-0.362863 0.30123,-0.309553 0.59241,-0.619327 0.85461,-0.932005 0.24343,-0.290318 0.46775,-0.566915 0.6872,-0.851781 0.58904,-0.763785 1.11322,-1.484007 1.65276,-2.104638 0.32314,-0.372535 0.6536,-0.709782 1.01036,-0.987378 a 1.5510629,1.781695 0 0 0 0.0253,-0.02292 c 0.26171,-0.211389 0.80938,-0.261928 1.01618,-0.131778 a 1.5510629,1.781695 0 0 0 0.0194,0.01337 c 1.03141,0.627521 1.8511,1.905431 2.98043,3.321194 a 1.5510629,1.781695 0 0 0 0.006,0.0061 c 0.80684,0.999957 1.85642,2.614727 3.74356,3.30018 a 1.5510629,1.781695 0 0 0 0.0254,0.0078 c 1.8499,0.632826 3.39702,-0.484203 4.33147,-1.447651 l 0.006,-0.0078 c 1.89142,-1.883872 2.90885,-3.936922 4.36262,-5.074421 a 1.5510629,1.781695 0 0 0 0.0175,-0.01337 c 0.12747,-0.102761 0.30859,-0.170244 0.48472,-0.202443 z" />
</svg>
