<?xml version="1.0" encoding="UTF-8" standalone="no"?>
<svg
   version="1.1"
   width="16"
   height="3"
   id="svg1"
   xmlns="http://www.w3.org/2000/svg"
   xmlns:svg="http://www.w3.org/2000/svg">
  <defs
     id="defs1" />
  <g
     id="g1">
    <path
       d="M 12.582031,0.15234375 C 12.116264,-0.08588112 11.610071,0.00664298 11.234375,0.26953125 10.52934,0.75182855 10.17945,1.3814708 9.7402344,1.7617187 a 0.50005,0.50005 0 0 0 -0.00781,0.00781 C 9.5668842,1.9191534 9.3842417,1.9895453 9.2871094,1.9628906 9.0305438,1.8798319 8.8148469,1.6370647 8.5195313,1.3183594 l -0.00195,-0.00195 C 8.217774,0.9887782 7.8872418,0.49800303 7.2949219,0.18164062 h -0.00195 C 6.8285772,-0.07177428 6.3068829,0.00277356 5.9140625,0.27734375 5.1822841,0.77515059 4.8289348,1.4301969 4.3691406,1.8105469 a 0.50005,0.50005 0 0 0 -0.00977,0.00781 C 4.2127243,1.9460135 4.0333933,2.0051681 3.9472656,1.9765625 3.6728371,1.8764534 3.4489784,1.609077 3.140625,1.2734375 l -0.00195,-0.00195 C 2.8431904,0.94750385 2.5161696,0.46445842 1.9179687,0.1640625 h -0.00195 C 1.4502486,-0.07416153 0.94405521,0.01835891 0.56835937,0.28125 -0.13667648,0.7635477 -0.48656421,1.3931895 -0.92578125,1.7734375 a 0.50005,0.50005 0 0 0 -0.009766,0.00781 C -1.1010743,1.9308635 -1.281773,2.0012556 -1.3789062,1.9746094 -1.6361796,1.8913243 -1.8538219,1.6481099 -2.1503906,1.328125 l -0.7324219,0.6796875 c 0.2601062,0.2806434 0.596684,0.733402 1.2050781,0.9257813 a 0.50005,0.50005 0 0 0 0.00781,0.00195 c 0.5963934,0.1776069 1.09717559,-0.1358483 1.39843752,-0.40625 l 0.001953,-0.00195 C 0.34025174,1.9986198 0.6660827,1.4227682 1.1347656,1.1035156 a 0.50005,0.50005 0 0 0 0.00586,-0.00391 c 0.08827,-0.061944 0.257432,-0.079173 0.3203125,-0.046875 a 0.50005,0.50005 0 0 0 0.00586,0.00391 c 0.3276781,0.1636571 0.5797872,0.5010563 0.9355469,0.890625 a 0.50005,0.50005 0 0 0 0,0.00195 c 0.2675583,0.29113 0.6025819,0.7520234 1.2109375,0.9707032 a 0.50005,0.50005 0 0 0 0.00586,0.00195 C 4.1915848,3.1186164 4.7005624,2.8465163 5.015625,2.5722656 5.6619879,2.0340681 5.9946444,1.4293279 6.4785156,1.1015625 a 0.50005,0.50005 0 0 0 0.00781,-0.00586 c 0.084376,-0.05933 0.2614538,-0.073636 0.328125,-0.037109 a 0.50005,0.50005 0 0 0 0.00586,0.00391 C 7.1528287,1.2386291 7.4171628,1.5967904 7.78125,1.9941406 a 0.50005,0.50005 0 0 0 0.00195,0.00195 C 8.043309,2.2767367 8.381839,2.7294959 8.9902344,2.921875 a 0.50005,0.50005 0 0 0 0.00781,0.00195 c 0.5963932,0.1776086 1.0952221,-0.1358487 1.3964841,-0.40625 l 0.002,-0.00195 c 0.609783,-0.5287243 0.937569,-1.104576 1.40625,-1.4238281 a 0.50005,0.50005 0 0 0 0.0059,-0.00391 c 0.08828,-0.061947 0.255483,-0.079171 0.318359,-0.046875 a 0.50005,0.50005 0 0 0 0.0059,0.00391 c 0.327679,0.1636571 0.579787,0.5010563 0.935546,0.890625 a 0.50005,0.50005 0 0 0 0.002,0.00195 c 0.267558,0.2911271 0.600627,0.7520233 1.208984,0.9707031 a 0.50005,0.50005 0 0 0 0.0078,0.00195 c 0.571693,0.1964865 1.079375,-0.07572 1.394532,-0.3496094 0.646369,-0.5381977 0.979021,-1.1429374 1.46289,-1.4707032 a 0.50005,0.50005 0 0 0 0.0078,-0.00586 c 0.08439,-0.059337 0.261441,-0.073643 0.328125,-0.037109 a 0.50005,0.50005 0 0 0 0.0059,0.00391 c 0.332519,0.1761302 0.59685,0.5342899 0.960938,0.9316407 L 19.185547,1.3066406 C 18.885343,0.97901012 18.55424,0.48680811 17.960937,0.16992187 h -0.002 c -0.464388,-0.253409 -0.986088,-0.17886093 -1.378906,0.0957031 -0.731776,0.49780778 -1.085124,1.1528539 -1.544922,1.5332031 a 0.50005,0.50005 0 0 0 -0.0078,0.00781 C 14.880701,1.9342922 14.699411,1.993454 14.613281,1.9648437 14.338148,1.8644763 14.11623,1.5966265 13.806641,1.2597656 v 0.00195 C 13.510772,0.93773243 13.183189,0.45324233 12.583984,0.15234375 Z"
       fill="currentColor" id="path1" />
  </g>
</svg>
